<svg width="400" height="400" viewBox="0 0 400 400" fill="none" xmlns="http://www.w3.org/2000/svg">
  <rect width="400" height="400" fill="#F8F9FA"/>
  <rect x="80" y="180" width="240" height="80" rx="8" fill="#E5E7EB" stroke="#D1D5DB" stroke-width="2"/>
  <rect x="90" y="190" width="20" height="15" rx="2" fill="#F9FAFB"/>
  <rect x="120" y="190" width="20" height="15" rx="2" fill="#F9FAFB"/>
  <rect x="150" y="190" width="20" height="15" rx="2" fill="#F9FAFB"/>
  <rect x="180" y="190" width="20" height="15" rx="2" fill="#F9FAFB"/>
  <rect x="210" y="190" width="20" height="15" rx="2" fill="#F9FAFB"/>
  <rect x="240" y="190" width="20" height="15" rx="2" fill="#F9FAFB"/>
  <rect x="270" y="190" width="20" height="15" rx="2" fill="#F9FAFB"/>
  <rect x="300" y="190" width="20" height="15" rx="2" fill="#F9FAFB"/>
  <rect x="90" y="215" width="20" height="15" rx="2" fill="#F9FAFB"/>
  <rect x="120" y="215" width="20" height="15" rx="2" fill="#F9FAFB"/>
  <rect x="150" y="215" width="20" height="15" rx="2" fill="#F9FAFB"/>
  <rect x="180" y="215" width="20" height="15" rx="2" fill="#F9FAFB"/>
  <rect x="210" y="215" width="20" height="15" rx="2" fill="#F9FAFB"/>
  <rect x="240" y="215" width="20" height="15" rx="2" fill="#F9FAFB"/>
  <rect x="270" y="215" width="20" height="15" rx="2" fill="#F9FAFB"/>
  <rect x="120" y="240" width="160" height="15" rx="2" fill="#F9FAFB"/>
</svg>
