<svg width="400" height="400" viewBox="0 0 400 400" fill="none" xmlns="http://www.w3.org/2000/svg">
  <defs>
    <linearGradient id="tabletGrad" x1="0%" y1="0%" x2="100%" y2="100%">
      <stop offset="0%" style="stop-color:#1F2937;stop-opacity:1" />
      <stop offset="100%" style="stop-color:#111827;stop-opacity:1" />
    </linearGradient>
    <linearGradient id="tabletScreenGrad" x1="0%" y1="0%" x2="100%" y2="100%">
      <stop offset="0%" style="stop-color:#8B5CF6;stop-opacity:1" />
      <stop offset="100%" style="stop-color:#7C3AED;stop-opacity:1" />
    </linearGradient>
    <filter id="tabletShadow" x="-50%" y="-50%" width="200%" height="200%">
      <feDropShadow dx="0" dy="10" stdDeviation="14" flood-color="#000000" flood-opacity="0.18"/>
    </filter>
  </defs>
  <rect width="400" height="400" fill="#F8F9FA"/>
  
  <!-- Tablet shadow -->
  <rect x="100" y="88" width="200" height="240" rx="20" fill="#00000018" filter="url(#tabletShadow)"/>
  
  <!-- Tablet body -->
  <rect x="100" y="80" width="200" height="240" rx="20" fill="url(#tabletGrad)" stroke="#374151" stroke-width="1"/>
  
  <!-- Screen -->
  <rect x="110" y="100" width="180" height="200" rx="12" fill="url(#tabletScreenGrad)"/>
  
  <!-- Screen content -->
  <rect x="125" y="120" width="150" height="80" rx="8" fill="#A78BFA" opacity="0.8"/>
  <rect x="135" y="130" width="130" height="60" rx="6" fill="#C4B5FD" opacity="0.9"/>
  
  <!-- App grid -->
  <rect x="130" y="220" width="25" height="25" rx="5" fill="#EF4444" opacity="0.9"/>
  <rect x="165" y="220" width="25" height="25" rx="5" fill="#10B981" opacity="0.9"/>
  <rect x="200" y="220" width="25" height="25" rx="5" fill="#F59E0B" opacity="0.9"/>
  <rect x="235" y="220" width="25" height="25" rx="5" fill="#06B6D4" opacity="0.9"/>
  
  <rect x="130" y="255" width="25" height="25" rx="5" fill="#EC4899" opacity="0.9"/>
  <rect x="165" y="255" width="25" height="25" rx="5" fill="#84CC16" opacity="0.9"/>
  <rect x="200" y="255" width="25" height="25" rx="5" fill="#F97316" opacity="0.9"/>
  <rect x="235" y="255" width="25" height="25" rx="5" fill="#6366F1" opacity="0.9"/>
  
  <!-- Home button -->
  <circle cx="200" cy="330" r="12" fill="#374151"/>
  <circle cx="200" cy="330" r="8" fill="#4B5563"/>
  
  <!-- Front camera -->
  <circle cx="200" cy="60" r="4" fill="#6B7280"/>
  <circle cx="200" cy="60" r="2" fill="#374151"/>
  
  <!-- Home indicator -->
  <rect x="180" y="340" width="40" height="4" rx="2" fill="#6B7280"/>
</svg>
